<svg width="400" height="400" viewBox="0 0 400 400" fill="none" xmlns="http://www.w3.org/2000/svg">
<path d="M200 216.716C199.921 216.62 199.83 216.509 199.727 216.383C199.299 215.858 198.669 215.08 197.867 214.068C196.264 212.045 193.973 209.088 191.223 205.358C185.722 197.897 178.388 187.344 171.055 174.979C156.376 150.229 141.75 118.296 141.75 89.375C141.75 48.0222 155.186 23.9339 174.033 13.2627C176.827 25.0384 187.48 34.25 200 34.25C212.52 34.25 223.173 25.0384 225.967 13.2627C244.814 23.9339 258.25 48.0222 258.25 89.375C258.25 118.296 243.624 150.229 228.945 174.979C221.612 187.344 214.278 197.897 208.777 205.358C206.027 209.088 203.736 212.045 202.133 214.068C201.331 215.08 200.701 215.858 200.273 216.383C200.17 216.509 200.079 216.62 200 216.716Z" fill="#F9A8D4" stroke="black"/>
<path d="M364.217 103.151C355.028 111.468 352.044 125.205 357.673 137.089C363.298 148.963 375.085 154.713 386.98 152.488C386.109 175.175 371.215 198.521 335.401 216.428L335.397 216.43C310.535 229.172 276.755 229.345 249.117 226.3C235.311 224.779 223.064 222.458 214.268 220.518C209.87 219.547 206.336 218.672 203.903 218.04C202.686 217.724 201.744 217.469 201.107 217.293C200.942 217.247 200.798 217.207 200.674 217.172C200.726 217.045 200.788 216.896 200.86 216.724C201.123 216.093 201.516 215.162 202.033 213.968C203.069 211.58 204.605 208.138 206.604 203.925C210.603 195.499 216.455 183.99 223.866 171.664C238.702 146.99 259.734 119.128 284.603 106.07C320.431 88.1574 346.919 89.9022 364.217 103.151Z" fill="#F9A8D4" stroke="black"/>
<path d="M199.326 216.547C199.202 216.582 199.058 216.622 198.893 216.668C198.256 216.844 197.314 217.099 196.097 217.415C193.664 218.047 190.13 218.922 185.732 219.893C176.936 221.833 164.689 224.154 150.883 225.675C123.245 228.72 89.465 228.547 64.603 215.805L64.6031 215.805L64.5924 215.8C28.7846 198.513 13.8909 175.175 13.0203 152.488C24.9146 154.713 36.7022 148.963 42.3269 137.089C47.9561 125.205 44.9717 111.468 35.7828 103.151C53.0812 89.9019 79.5705 88.1573 115.399 106.071C140.266 118.816 161.298 146.521 176.134 171.118C183.546 183.405 189.397 194.893 193.396 203.31C195.395 207.518 196.931 210.958 197.967 213.345C198.484 214.538 198.877 215.468 199.14 216.099C199.212 216.271 199.274 216.42 199.326 216.547Z" fill="#F9A8D4" stroke="black"/>
<path d="M332.338 355.429C323.403 347.558 309.714 346.464 299.7 353.975C289.683 361.488 285.831 374.542 289.947 386.463C268.481 389.246 243.9 377.442 221.668 343.476L221.667 343.474C205.809 319.531 200.499 284.493 199.171 255.368C198.508 240.818 198.84 227.768 199.337 218.356C199.586 213.651 199.876 209.855 200.104 207.237C200.218 205.928 200.316 204.913 200.386 204.226C200.404 204.048 200.42 203.892 200.434 203.759C200.553 203.791 200.689 203.829 200.843 203.871C201.481 204.047 202.42 204.311 203.628 204.664C206.043 205.371 209.531 206.434 213.817 207.857C222.389 210.705 234.149 214.996 246.903 220.768C272.432 232.322 301.852 249.774 317.708 273.402C339.927 307.348 341.911 335.069 332.338 355.429Z" fill="#F9A8D4" stroke="black"/>
<path d="M199.566 203.759C199.58 203.892 199.596 204.048 199.614 204.226C199.684 204.913 199.782 205.928 199.896 207.237C200.124 209.855 200.414 213.651 200.663 218.356C201.16 227.768 201.492 240.818 200.829 255.368C199.501 284.493 194.191 319.531 178.333 343.474L178.332 343.476C156.1 377.442 131.519 389.246 110.053 386.463C114.169 374.542 110.317 361.488 100.3 353.975C90.2858 346.464 76.597 347.558 67.6622 355.429C58.0892 335.069 60.0731 307.348 82.2917 273.401C98.1479 249.774 127.568 232.322 153.097 220.768C165.851 214.996 177.611 210.705 186.183 207.857C190.469 206.434 193.957 205.371 196.372 204.664C197.58 204.311 198.519 204.047 199.157 203.871C199.311 203.829 199.447 203.791 199.566 203.759Z" fill="#F9A8D4" stroke="black"/>
<path d="M222.5 35.625C220 46.25 210.625 54.375 200 54.375C189.375 54.375 180 46.25 177.5 35.625C160.625 45 148.75 66.25 148.75 103.125C148.75 154.375 200.625 215.625 200.625 215.625C200.625 215.625 252.5 154.375 252.5 103.125C251.875 66.25 240 45 222.5 35.625Z" fill="#FFF0F3"/>
<path d="M364.375 158.125C354.375 160.625 343.125 155.625 338.75 145C333.75 134.375 336.875 122.5 345 115.625C329.375 103.75 305.625 101.875 274.375 117.5C230 140 200 215 200 215C200 215 275 236.875 319.375 214.375C350.625 198.75 363.75 178.125 364.375 158.125Z" fill="#FFF0F3"/>
<path d="M35.625 158.125C45.625 160.625 56.875 155.625 61.25 145C66.25 134.375 63.125 122.5 55 115.625C70.625 103.75 94.375 101.875 125.625 117.5C169.375 140 200 215 200 215C200 215 125 236.875 80.625 214.375C49.375 198.75 36.25 178.125 35.625 158.125Z" fill="#FFF0F3"/>
<path d="M279.375 364.375C275.625 354.375 278.75 341.875 288.125 335.625C297.5 329.375 308.75 330 316.875 337.5C325.625 319.375 323.75 295 304.375 265C275.625 222.5 200 202.5 200 202.5C200 202.5 190.625 283.75 218.75 325.625C238.75 356.25 260 366.875 279.375 364.375Z" fill="#FFF0F3"/>
<path d="M120.625 364.375C124.375 354.375 121.25 341.875 111.875 335.625C102.5 329.375 91.25 330 83.125 337.5C74.375 319.375 76.25 295 95.625 265C123.75 223.125 199.375 203.125 199.375 203.125C199.375 203.125 208.75 284.375 180.625 326.25C161.25 356.25 140 366.875 120.625 364.375Z" fill="#FFF0F3"/>
<path d="M179.314 243.946L171.984 240.281L219.628 135.22L226.958 138.885L179.314 243.946Z" fill="#F9A8D4"/>
<path d="M233.066 136.442C233.066 141.939 229.401 146.826 223.904 146.826C218.406 146.826 214.131 142.55 213.52 137.053C213.52 131.556 217.185 126.669 222.682 126.669C228.179 126.669 232.455 130.945 233.066 136.442Z" fill="#F9A8D4"/>
<path d="M185.422 241.503C185.422 247 181.757 251.887 176.26 251.887C170.762 251.887 166.487 247.611 165.876 242.113C165.876 236.616 169.541 231.73 175.038 231.73C180.536 231.73 185.422 236.005 185.422 241.503Z" fill="#F9A8D4"/>
<path d="M149.995 216.459L146.941 208.518L248.947 162.707L252.001 170.648L149.995 216.459Z" fill="#F9A8D4"/>
<path d="M259.942 166.983C259.331 172.48 255.055 176.756 249.558 176.145C244.061 175.534 240.396 170.648 240.396 165.151C241.006 159.653 245.282 155.377 250.78 155.988C256.277 156.599 260.553 161.486 259.942 166.983Z" fill="#F9A8D4"/>
<path d="M158.546 213.405C157.935 218.902 153.66 223.178 148.162 222.567C142.665 221.957 139 217.07 139 211.573C139.611 206.075 143.887 201.8 149.384 202.41C154.881 203.021 158.546 207.908 158.546 213.405Z" fill="#F9A8D4"/>
<path d="M247.725 218.292L147.551 168.815L151.216 160.875L251.39 210.351L247.725 218.292Z" fill="#F9A8D4"/>
<path d="M250.169 224.4C244.671 224.4 240.396 220.124 239.785 214.627C239.785 209.129 243.45 204.243 248.947 204.243C254.444 204.243 258.72 208.519 259.331 214.016C259.942 219.513 255.666 224.4 250.169 224.4Z" fill="#F9A8D4"/>
<path d="M149.995 174.924C144.497 174.924 140.222 170.648 139.611 165.15C139.611 159.653 143.276 154.767 148.773 154.767C154.27 154.767 158.546 159.042 159.157 164.54C159.157 170.037 154.881 174.924 149.995 174.924Z" fill="#F9A8D4"/>
<path d="M217.795 244.557L173.817 138.275L181.146 134.61L225.125 240.892L217.795 244.557Z" fill="#F9A8D4"/>
<path d="M220.85 253.108C215.352 252.497 211.687 247.611 211.687 242.113C212.298 236.616 216.574 232.34 222.071 232.951C227.568 233.562 231.233 238.449 231.233 243.946C230.623 249.443 226.347 253.719 220.85 253.108Z" fill="#F9A8D4"/>
<path d="M176.871 146.215C171.373 145.604 167.708 140.718 167.708 135.22C167.708 129.723 172.595 125.447 178.092 126.058C183.59 126.669 187.255 131.556 187.255 137.053C186.644 142.55 181.757 146.826 176.871 146.215Z" fill="#F9A8D4"/>
<path d="M199.471 210.962C210.941 210.962 220.239 201.39 220.239 189.583C220.239 177.776 210.941 168.205 199.471 168.205C188.001 168.205 178.703 177.776 178.703 189.583C178.703 201.39 188.001 210.962 199.471 210.962Z" fill="#F9A8D4"/>
</svg>
